<?xml version="1.0" encoding="utf-8"?>
<!-- Generator: Adobe Illustrator 24.0.0, SVG Export Plug-In . SVG Version: 6.00 Build 0)  -->
<svg version="1.1" baseProfile="tiny" id="Layer_1" xmlns="http://www.w3.org/2000/svg" xmlns:xlink="http://www.w3.org/1999/xlink"
	 x="0px" y="0px" viewBox="0 0 50 12" xml:space="preserve">
<rect x="3.87" y="0.76" fill="#FFFFFF" width="41.84" height="10.27"/>
<text transform="matrix(1 0 0 1 10.7845 9.7228)" fill="#333333" font-family="'BookAntiqua-Bold'" font-size="1.76px">L</text>
<text transform="matrix(1 0 0 1 11.9124 9.7228)" fill="#333333" font-family="'BookAntiqua-Bold'" font-size="1.76px">a</text>
<text transform="matrix(1 0 0 1 12.845 9.7228)" fill="#333333" font-family="'BookAntiqua-Bold'" font-size="1.76px"> </text>
<text transform="matrix(1 0 0 1 13.3377 9.7228)" fill="#333333" font-family="'BookAntiqua-Bold'" font-size="1.76px">m</text>
<text transform="matrix(1 0 0 1 14.9559 9.7228)" fill="#333333" font-family="'BookAntiqua-Bold'" font-size="1.76px">e</text>
<text transform="matrix(1 0 0 1 15.8885 9.7228)" fill="#333333" font-family="'BookAntiqua-Bold'" font-size="1.76px">i</text>
<text transform="matrix(1 0 0 1 16.5272 9.7228)" fill="#333333" font-family="'BookAntiqua-Bold'" font-size="1.76px">l</text>
<text transform="matrix(1 0 0 1 17.1663 9.7228)" fill="#333333" font-family="'BookAntiqua-Bold'" font-size="1.76px">l</text>
<text transform="matrix(1 0 0 1 17.805 9.7228)" fill="#333333" font-family="'BookAntiqua-Bold'" font-size="1.76px">e</text>
<text transform="matrix(1 0 0 1 18.7381 9.7228)" fill="#333333" font-family="'BookAntiqua-Bold'" font-size="1.76px">u</text>
<text transform="matrix(1 0 0 1 19.8655 9.7228)" fill="#333333" font-family="'BookAntiqua-Bold'" font-size="1.76px">r</text>
<text transform="matrix(1 0 0 1 20.6033 9.7228)" fill="#333333" font-family="'BookAntiqua-Bold'" font-size="1.76px"> </text>
<text transform="matrix(1 0 0 1 21.0965 9.7228)" fill="#333333" font-family="'BookAntiqua-Bold'" font-size="1.76px">q</text>
<text transform="matrix(1 0 0 1 22.2239 9.7228)" fill="#333333" font-family="'BookAntiqua-Bold'" font-size="1.76px">u</text>
<text transform="matrix(1 0 0 1 23.3519 9.7228)" fill="#333333" font-family="'BookAntiqua-Bold'" font-size="1.76px">a</text>
<text transform="matrix(1 0 0 1 24.285 9.7228)" fill="#333333" font-family="'BookAntiqua-Bold'" font-size="1.76px">l</text>
<text transform="matrix(1 0 0 1 24.9236 9.7228)" fill="#333333" font-family="'BookAntiqua-Bold'" font-size="1.76px">i</text>
<text transform="matrix(1 0 0 1 25.5628 9.7228)" fill="#333333" font-family="'BookAntiqua-Bold'" font-size="1.76px">t</text>
<text transform="matrix(1 0 0 1 26.2015 9.7228)" fill="#333333" font-family="'BookAntiqua-Bold'" font-size="1.76px">é</text>
<text transform="matrix(1 0 0 1 27.1341 9.7228)" fill="#333333" font-family="'BookAntiqua-Bold'" font-size="1.76px">,</text>
<text transform="matrix(1 0 0 1 27.6273 9.7228)" fill="#333333" font-family="'BookAntiqua-Bold'" font-size="1.76px"> </text>
<text transform="matrix(1 0 0 1 28.1199 9.7228)" fill="#333333" font-family="'BookAntiqua-Bold'" font-size="1.76px">l</text>
<text transform="matrix(1 0 0 1 28.7586 9.7228)" fill="#333333" font-family="'BookAntiqua-Bold'" font-size="1.76px">e</text>
<text transform="matrix(1 0 0 1 29.6917 9.7228)" fill="#333333" font-family="'BookAntiqua-Bold'" font-size="1.76px"> </text>
<text transform="matrix(1 0 0 1 30.1844 9.7228)" fill="#333333" font-family="'BookAntiqua-Bold'" font-size="1.76px">m</text>
<text transform="matrix(1 0 0 1 31.8021 9.7228)" fill="#333333" font-family="'BookAntiqua-Bold'" font-size="1.76px">e</text>
<text transform="matrix(1 0 0 1 32.7347 9.7228)" fill="#333333" font-family="'BookAntiqua-Bold'" font-size="1.76px">i</text>
<text transform="matrix(1 0 0 1 33.3733 9.7228)" fill="#333333" font-family="'BookAntiqua-Bold'" font-size="1.76px">l</text>
<text transform="matrix(1 0 0 1 34.013 9.7228)" fill="#333333" font-family="'BookAntiqua-Bold'" font-size="1.76px">l</text>
<text transform="matrix(1 0 0 1 34.6517 9.7228)" fill="#333333" font-family="'BookAntiqua-Bold'" font-size="1.76px">e</text>
<text transform="matrix(1 0 0 1 35.5843 9.7228)" fill="#333333" font-family="'BookAntiqua-Bold'" font-size="1.76px">u</text>
<text transform="matrix(1 0 0 1 36.7122 9.7228)" fill="#333333" font-family="'BookAntiqua-Bold'" font-size="1.76px">r</text>
<text transform="matrix(1 0 0 1 37.4495 9.7228)" fill="#333333" font-family="'BookAntiqua-Bold'" font-size="1.76px"> </text>
<text transform="matrix(1 0 0 1 37.9427 9.7228)" fill="#333333" font-family="'BookAntiqua-Bold'" font-size="1.76px">p</text>
<text transform="matrix(1 0 0 1 39.0706 9.7228)" fill="#333333" font-family="'BookAntiqua-Bold'" font-size="1.76px">r</text>
<text transform="matrix(1 0 0 1 39.8079 9.7228)" fill="#333333" font-family="'BookAntiqua-Bold'" font-size="1.76px">i</text>
<text transform="matrix(1 0 0 1 40.4476 9.7228)" fill="#333333" font-family="'BookAntiqua-Bold'" font-size="1.76px">x</text>
<text transform="matrix(1 0 0 1 10.7845 9.7228)" fill="none" stroke="#000000" stroke-width="0.25" stroke-miterlimit="10" font-family="'BookAntiqua-Bold'" font-size="1.76px">L</text>
<text transform="matrix(1 0 0 1 11.9124 9.7228)" fill="none" stroke="#000000" stroke-width="0.25" stroke-miterlimit="10" font-family="'BookAntiqua-Bold'" font-size="1.76px">a</text>
<text transform="matrix(1 0 0 1 12.845 9.7228)" fill="none" stroke="#000000" stroke-width="0.25" stroke-miterlimit="10" font-family="'BookAntiqua-Bold'" font-size="1.76px"> </text>
<text transform="matrix(1 0 0 1 13.3377 9.7228)" fill="none" stroke="#000000" stroke-width="0.25" stroke-miterlimit="10" font-family="'BookAntiqua-Bold'" font-size="1.76px">m</text>
<text transform="matrix(1 0 0 1 14.9559 9.7228)" fill="none" stroke="#000000" stroke-width="0.25" stroke-miterlimit="10" font-family="'BookAntiqua-Bold'" font-size="1.76px">e</text>
<text transform="matrix(1 0 0 1 15.8885 9.7228)" fill="none" stroke="#000000" stroke-width="0.25" stroke-miterlimit="10" font-family="'BookAntiqua-Bold'" font-size="1.76px">i</text>
<text transform="matrix(1 0 0 1 16.5272 9.7228)" fill="none" stroke="#000000" stroke-width="0.25" stroke-miterlimit="10" font-family="'BookAntiqua-Bold'" font-size="1.76px">l</text>
<text transform="matrix(1 0 0 1 17.1663 9.7228)" fill="none" stroke="#000000" stroke-width="0.25" stroke-miterlimit="10" font-family="'BookAntiqua-Bold'" font-size="1.76px">l</text>
<text transform="matrix(1 0 0 1 17.805 9.7228)" fill="none" stroke="#000000" stroke-width="0.25" stroke-miterlimit="10" font-family="'BookAntiqua-Bold'" font-size="1.76px">e</text>
<text transform="matrix(1 0 0 1 18.7381 9.7228)" fill="none" stroke="#000000" stroke-width="0.25" stroke-miterlimit="10" font-family="'BookAntiqua-Bold'" font-size="1.76px">u</text>
<text transform="matrix(1 0 0 1 19.8655 9.7228)" fill="none" stroke="#000000" stroke-width="0.25" stroke-miterlimit="10" font-family="'BookAntiqua-Bold'" font-size="1.76px">r</text>
<text transform="matrix(1 0 0 1 20.6033 9.7228)" fill="none" stroke="#000000" stroke-width="0.25" stroke-miterlimit="10" font-family="'BookAntiqua-Bold'" font-size="1.76px"> </text>
<text transform="matrix(1 0 0 1 21.0965 9.7228)" fill="none" stroke="#000000" stroke-width="0.25" stroke-miterlimit="10" font-family="'BookAntiqua-Bold'" font-size="1.76px">q</text>
<text transform="matrix(1 0 0 1 22.2239 9.7228)" fill="none" stroke="#000000" stroke-width="0.25" stroke-miterlimit="10" font-family="'BookAntiqua-Bold'" font-size="1.76px">u</text>
<text transform="matrix(1 0 0 1 23.3519 9.7228)" fill="none" stroke="#000000" stroke-width="0.25" stroke-miterlimit="10" font-family="'BookAntiqua-Bold'" font-size="1.76px">a</text>
<text transform="matrix(1 0 0 1 24.285 9.7228)" fill="none" stroke="#000000" stroke-width="0.25" stroke-miterlimit="10" font-family="'BookAntiqua-Bold'" font-size="1.76px">l</text>
<text transform="matrix(1 0 0 1 24.9236 9.7228)" fill="none" stroke="#000000" stroke-width="0.25" stroke-miterlimit="10" font-family="'BookAntiqua-Bold'" font-size="1.76px">i</text>
<text transform="matrix(1 0 0 1 25.5628 9.7228)" fill="none" stroke="#000000" stroke-width="0.25" stroke-miterlimit="10" font-family="'BookAntiqua-Bold'" font-size="1.76px">t</text>
<text transform="matrix(1 0 0 1 26.2015 9.7228)" fill="none" stroke="#000000" stroke-width="0.25" stroke-miterlimit="10" font-family="'BookAntiqua-Bold'" font-size="1.76px">é</text>
<text transform="matrix(1 0 0 1 27.1341 9.7228)" fill="none" stroke="#000000" stroke-width="0.25" stroke-miterlimit="10" font-family="'BookAntiqua-Bold'" font-size="1.76px">,</text>
<text transform="matrix(1 0 0 1 27.6273 9.7228)" fill="none" stroke="#000000" stroke-width="0.25" stroke-miterlimit="10" font-family="'BookAntiqua-Bold'" font-size="1.76px"> </text>
<text transform="matrix(1 0 0 1 28.1199 9.7228)" fill="none" stroke="#000000" stroke-width="0.25" stroke-miterlimit="10" font-family="'BookAntiqua-Bold'" font-size="1.76px">l</text>
<text transform="matrix(1 0 0 1 28.7586 9.7228)" fill="none" stroke="#000000" stroke-width="0.25" stroke-miterlimit="10" font-family="'BookAntiqua-Bold'" font-size="1.76px">e</text>
<text transform="matrix(1 0 0 1 29.6917 9.7228)" fill="none" stroke="#000000" stroke-width="0.25" stroke-miterlimit="10" font-family="'BookAntiqua-Bold'" font-size="1.76px"> </text>
<text transform="matrix(1 0 0 1 30.1844 9.7228)" fill="none" stroke="#000000" stroke-width="0.25" stroke-miterlimit="10" font-family="'BookAntiqua-Bold'" font-size="1.76px">m</text>
<text transform="matrix(1 0 0 1 31.8021 9.7228)" fill="none" stroke="#000000" stroke-width="0.25" stroke-miterlimit="10" font-family="'BookAntiqua-Bold'" font-size="1.76px">e</text>
<text transform="matrix(1 0 0 1 32.7347 9.7228)" fill="none" stroke="#000000" stroke-width="0.25" stroke-miterlimit="10" font-family="'BookAntiqua-Bold'" font-size="1.76px">i</text>
<text transform="matrix(1 0 0 1 33.3733 9.7228)" fill="none" stroke="#000000" stroke-width="0.25" stroke-miterlimit="10" font-family="'BookAntiqua-Bold'" font-size="1.76px">l</text>
<text transform="matrix(1 0 0 1 34.013 9.7228)" fill="none" stroke="#000000" stroke-width="0.25" stroke-miterlimit="10" font-family="'BookAntiqua-Bold'" font-size="1.76px">l</text>
<text transform="matrix(1 0 0 1 34.6517 9.7228)" fill="none" stroke="#000000" stroke-width="0.25" stroke-miterlimit="10" font-family="'BookAntiqua-Bold'" font-size="1.76px">e</text>
<text transform="matrix(1 0 0 1 35.5843 9.7228)" fill="none" stroke="#000000" stroke-width="0.25" stroke-miterlimit="10" font-family="'BookAntiqua-Bold'" font-size="1.76px">u</text>
<text transform="matrix(1 0 0 1 36.7122 9.7228)" fill="none" stroke="#000000" stroke-width="0.25" stroke-miterlimit="10" font-family="'BookAntiqua-Bold'" font-size="1.76px">r</text>
<text transform="matrix(1 0 0 1 37.4495 9.7228)" fill="none" stroke="#000000" stroke-width="0.25" stroke-miterlimit="10" font-family="'BookAntiqua-Bold'" font-size="1.76px"> </text>
<text transform="matrix(1 0 0 1 37.9427 9.7228)" fill="none" stroke="#000000" stroke-width="0.25" stroke-miterlimit="10" font-family="'BookAntiqua-Bold'" font-size="1.76px">p</text>
<text transform="matrix(1 0 0 1 39.0706 9.7228)" fill="none" stroke="#000000" stroke-width="0.25" stroke-miterlimit="10" font-family="'BookAntiqua-Bold'" font-size="1.76px">r</text>
<text transform="matrix(1 0 0 1 39.8079 9.7228)" fill="none" stroke="#000000" stroke-width="0.25" stroke-miterlimit="10" font-family="'BookAntiqua-Bold'" font-size="1.76px">i</text>
<text transform="matrix(1 0 0 1 40.4476 9.7228)" fill="none" stroke="#000000" stroke-width="0.25" stroke-miterlimit="10" font-family="'BookAntiqua-Bold'" font-size="1.76px">x</text>
<text transform="matrix(1 0 0 1 13.3345 7.6628)" fill="#666666" font-family="'BookAntiqua-Bold'" font-size="7.28px">M</text>
<text transform="matrix(1 0 0 1 13.3345 7.6628)" fill="none" stroke="#000000" stroke-width="0.5" stroke-miterlimit="10" font-family="'BookAntiqua-Bold'" font-size="7.28px">M</text>
<text transform="matrix(1 0 0 1 20.8445 7.6628)" fill="#666666" font-family="'BookAntiqua'" font-size="7.28px">o</text>
<text transform="matrix(1 0 0 1 25.0295 7.6628)" fill="#666666" font-family="'BookAntiqua'" font-size="7.28px">n</text>
<text transform="matrix(1 0 0 1 29.4783 7.6628)" fill="#666666" font-family="'BookAntiqua'" font-size="7.28px">P</text>
<text transform="matrix(1 0 0 1 34.0862 7.6628)" fill="#666666" font-family="'BookAntiqua'" font-size="7.28px">C</text>
<text transform="matrix(1 0 0 1 20.8445 7.6628)" fill="none" stroke="#000000" stroke-width="0.5" stroke-miterlimit="10" font-family="'BookAntiqua'" font-size="7.28px">o</text>
<text transform="matrix(1 0 0 1 25.0295 7.6628)" fill="none" stroke="#000000" stroke-width="0.5" stroke-miterlimit="10" font-family="'BookAntiqua'" font-size="7.28px">n</text>
<text transform="matrix(1 0 0 1 29.4783 7.6628)" fill="none" stroke="#000000" stroke-width="0.5" stroke-miterlimit="10" font-family="'BookAntiqua'" font-size="7.28px">P</text>
<text transform="matrix(1 0 0 1 34.0862 7.6628)" fill="none" stroke="#000000" stroke-width="0.5" stroke-miterlimit="10" font-family="'BookAntiqua'" font-size="7.28px">C</text>
</svg>
